<svg xmlns="http://www.w3.org/2000/svg" version="1.1" xmlns:xlink="http://www.w3.org/1999/xlink" xmlns:svgjs="http://svgjs.com/svgjs" width="1440" height="560" preserveAspectRatio="none" viewBox="0 0 1440 560"><g mask="url(&quot;#SvgjsMask1000&quot;)" fill="none"><rect width="1440" height="560" x="0" y="0" fill="#0e2a47"></rect><path d="M-107.95 365.55L-107.95 365.55" stroke="#132e65" stroke-width="1.5"></path><path d="M-107.95 365.55L-110.8 533.68" stroke="#132e65" stroke-width="1.5"></path><path d="M-107.95 365.55L37.72 539.46" stroke="#132e65" stroke-width="1.5"></path><path d="M-107.95 365.55L224.82 360.78" stroke="#132e65" stroke-width="1.5"></path><path d="M-107.95 365.55L211.95 516.36" stroke="#132e65" stroke-width="1.5"></path><path d="M-107.95 365.55L101.25 652.54" stroke="#132e65" stroke-width="1.5"></path><path d="M-110.8 533.68L-110.8 533.68" stroke="#132e65" stroke-width="1.5"></path><path d="M-110.8 533.68L37.72 539.46" stroke="#132e65" stroke-width="1.5"></path><path d="M-110.8 533.68L101.25 652.54" stroke="#132e65" stroke-width="1.5"></path><path d="M-110.8 533.68L211.95 516.36" stroke="#132e65" stroke-width="1.5"></path><path d="M37.72 539.46L37.72 539.46" stroke="#132e65" stroke-width="1.5"></path><path d="M37.72 539.46L101.25 652.54" stroke="#132e65" stroke-width="1.5"></path><path d="M37.72 539.46L211.95 516.36" stroke="#132e65" stroke-width="1.5"></path><path d="M37.72 539.46L232.02 676.38" stroke="#132e65" stroke-width="1.5"></path><path d="M101.25 652.54L101.25 652.54" stroke="#132e65" stroke-width="1.5"></path><path d="M101.25 652.54L232.02 676.38" stroke="#132e65" stroke-width="1.5"></path><path d="M101.25 652.54L211.95 516.36" stroke="#132e65" stroke-width="1.5"></path><path d="M101.25 652.54L345.11 654.12" stroke="#132e65" stroke-width="1.5"></path><path d="M101.25 652.54L349.59 561.07" stroke="#132e65" stroke-width="1.5"></path><path d="M224.82 360.78L224.82 360.78" stroke="#132e65" stroke-width="1.5"></path><path d="M224.82 360.78L211.95 516.36" stroke="#132e65" stroke-width="1.5"></path><path d="M224.82 360.78L405.55 374.14" stroke="#132e65" stroke-width="1.5"></path><path d="M211.95 516.36L211.95 516.36" stroke="#132e65" stroke-width="1.5"></path><path d="M211.95 516.36L349.59 561.07" stroke="#132e65" stroke-width="1.5"></path><path d="M211.95 516.36L232.02 676.38" stroke="#132e65" stroke-width="1.5"></path><path d="M232.02 676.38L232.02 676.38" stroke="#132e65" stroke-width="1.5"></path><path d="M232.02 676.38L345.11 654.12" stroke="#132e65" stroke-width="1.5"></path><path d="M405.55 374.14L405.55 374.14" stroke="#132e65" stroke-width="1.5"></path><path d="M405.55 374.14L349.59 561.07" stroke="#132e65" stroke-width="1.5"></path><path d="M349.59 561.07L349.59 561.07" stroke="#132e65" stroke-width="1.5"></path><path d="M349.59 561.07L345.11 654.12" stroke="#132e65" stroke-width="1.5"></path><path d="M349.59 561.07L232.02 676.38" stroke="#132e65" stroke-width="1.5"></path><path d="M349.59 561.07L526.74 666.35" stroke="#132e65" stroke-width="1.5"></path><path d="M349.59 561.07L559.64 509.32" stroke="#132e65" stroke-width="1.5"></path><path d="M345.11 654.12L345.11 654.12" stroke="#132e65" stroke-width="1.5"></path><path d="M345.11 654.12L526.74 666.35" stroke="#132e65" stroke-width="1.5"></path><path d="M559.64 509.32L559.64 509.32" stroke="#132e65" stroke-width="1.5"></path><path d="M559.64 509.32L659.7 555.77" stroke="#132e65" stroke-width="1.5"></path><path d="M559.64 509.32L526.74 666.35" stroke="#132e65" stroke-width="1.5"></path><path d="M559.64 509.32L405.55 374.14" stroke="#132e65" stroke-width="1.5"></path><path d="M559.64 509.32L707.14 683.98" stroke="#132e65" stroke-width="1.5"></path><path d="M526.74 666.35L526.74 666.35" stroke="#132e65" stroke-width="1.5"></path><path d="M659.7 555.77L659.7 555.77" stroke="#132e65" stroke-width="1.5"></path><path d="M707.14 683.98L707.14 683.98" stroke="#132e65" stroke-width="1.5"></path><path d="M707.14 683.98L659.7 555.77" stroke="#132e65" stroke-width="1.5"></path><path d="M707.14 683.98L845.51 688.66" stroke="#132e65" stroke-width="1.5"></path><path d="M707.14 683.98L809.77 536.52" stroke="#132e65" stroke-width="1.5"></path><path d="M707.14 683.98L526.74 666.35" stroke="#132e65" stroke-width="1.5"></path><path d="M851.72 57.3L851.72 57.3" stroke="#132e65" stroke-width="1.5"></path><path d="M851.72 57.3L955.94 48.31" stroke="#132e65" stroke-width="1.5"></path><path d="M851.72 57.3L816.51 242.09" stroke="#132e65" stroke-width="1.5"></path><path d="M851.72 57.3L958.56 236.28" stroke="#132e65" stroke-width="1.5"></path><path d="M851.72 57.3L1091.84 69.23" stroke="#132e65" stroke-width="1.5"></path><path d="M851.72 57.3L859.18 342.68" stroke="#132e65" stroke-width="1.5"></path><path d="M816.51 242.09L816.51 242.09" stroke="#132e65" stroke-width="1.5"></path><path d="M816.51 242.09L859.18 342.68" stroke="#132e65" stroke-width="1.5"></path><path d="M816.51 242.09L958.56 236.28" stroke="#132e65" stroke-width="1.5"></path><path d="M816.51 242.09L940.45 351.59" stroke="#132e65" stroke-width="1.5"></path><path d="M859.18 342.68L859.18 342.68" stroke="#132e65" stroke-width="1.5"></path><path d="M859.18 342.68L940.45 351.59" stroke="#132e65" stroke-width="1.5"></path><path d="M859.18 342.68L958.56 236.28" stroke="#132e65" stroke-width="1.5"></path><path d="M859.18 342.68L809.77 536.52" stroke="#132e65" stroke-width="1.5"></path><path d="M809.77 536.52L809.77 536.52" stroke="#132e65" stroke-width="1.5"></path><path d="M809.77 536.52L659.7 555.77" stroke="#132e65" stroke-width="1.5"></path><path d="M809.77 536.52L845.51 688.66" stroke="#132e65" stroke-width="1.5"></path><path d="M809.77 536.52L981.06 530.78" stroke="#132e65" stroke-width="1.5"></path><path d="M845.51 688.66L845.51 688.66" stroke="#132e65" stroke-width="1.5"></path><path d="M845.51 688.66L981.06 530.78" stroke="#132e65" stroke-width="1.5"></path><path d="M845.51 688.66L659.7 555.77" stroke="#132e65" stroke-width="1.5"></path><path d="M845.51 688.66L1130.51 700.65" stroke="#132e65" stroke-width="1.5"></path><path d="M845.51 688.66L1112.73 518.14" stroke="#132e65" stroke-width="1.5"></path><path d="M955.94 48.31L955.94 48.31" stroke="#132e65" stroke-width="1.5"></path><path d="M955.94 48.31L1091.84 69.23" stroke="#132e65" stroke-width="1.5"></path><path d="M958.56 236.28L958.56 236.28" stroke="#132e65" stroke-width="1.5"></path><path d="M958.56 236.28L940.45 351.59" stroke="#132e65" stroke-width="1.5"></path><path d="M958.56 236.28L955.94 48.31" stroke="#132e65" stroke-width="1.5"></path><path d="M958.56 236.28L1158.05 198.44" stroke="#132e65" stroke-width="1.5"></path><path d="M940.45 351.59L940.45 351.59" stroke="#132e65" stroke-width="1.5"></path><path d="M981.06 530.78L981.06 530.78" stroke="#132e65" stroke-width="1.5"></path><path d="M981.06 530.78L1112.73 518.14" stroke="#132e65" stroke-width="1.5"></path><path d="M981.06 530.78L940.45 351.59" stroke="#132e65" stroke-width="1.5"></path><path d="M981.06 530.78L1122.85 410.03" stroke="#132e65" stroke-width="1.5"></path><path d="M981.06 530.78L859.18 342.68" stroke="#132e65" stroke-width="1.5"></path><path d="M1115.51 -65.76L1115.51 -65.76" stroke="#132e65" stroke-width="1.5"></path><path d="M1115.51 -65.76L1091.84 69.23" stroke="#132e65" stroke-width="1.5"></path><path d="M1115.51 -65.76L1259.45 -106.28" stroke="#132e65" stroke-width="1.5"></path><path d="M1115.51 -65.76L955.94 48.31" stroke="#132e65" stroke-width="1.5"></path><path d="M1115.51 -65.76L1239.03 109" stroke="#132e65" stroke-width="1.5"></path><path d="M1115.51 -65.76L1158.05 198.44" stroke="#132e65" stroke-width="1.5"></path><path d="M1091.84 69.23L1091.84 69.23" stroke="#132e65" stroke-width="1.5"></path><path d="M1091.84 69.23L1158.05 198.44" stroke="#132e65" stroke-width="1.5"></path><path d="M1091.84 69.23L1239.03 109" stroke="#132e65" stroke-width="1.5"></path><path d="M1091.84 69.23L958.56 236.28" stroke="#132e65" stroke-width="1.5"></path><path d="M1158.05 198.44L1158.05 198.44" stroke="#132e65" stroke-width="1.5"></path><path d="M1158.05 198.44L1239.03 109" stroke="#132e65" stroke-width="1.5"></path><path d="M1158.05 198.44L1282.22 254.08" stroke="#132e65" stroke-width="1.5"></path><path d="M1158.05 198.44L1259.34 365" stroke="#132e65" stroke-width="1.5"></path><path d="M1122.85 410.03L1122.85 410.03" stroke="#132e65" stroke-width="1.5"></path><path d="M1122.85 410.03L1112.73 518.14" stroke="#132e65" stroke-width="1.5"></path><path d="M1122.85 410.03L1259.34 365" stroke="#132e65" stroke-width="1.5"></path><path d="M1122.85 410.03L940.45 351.59" stroke="#132e65" stroke-width="1.5"></path><path d="M1122.85 410.03L1279.7 540.95" stroke="#132e65" stroke-width="1.5"></path><path d="M1122.85 410.03L1158.05 198.44" stroke="#132e65" stroke-width="1.5"></path><path d="M1112.73 518.14L1112.73 518.14" stroke="#132e65" stroke-width="1.5"></path><path d="M1112.73 518.14L1279.7 540.95" stroke="#132e65" stroke-width="1.5"></path><path d="M1112.73 518.14L1130.51 700.65" stroke="#132e65" stroke-width="1.5"></path><path d="M1112.73 518.14L1259.34 365" stroke="#132e65" stroke-width="1.5"></path><path d="M1112.73 518.14L940.45 351.59" stroke="#132e65" stroke-width="1.5"></path><path d="M1130.51 700.65L1130.51 700.65" stroke="#132e65" stroke-width="1.5"></path><path d="M1130.51 700.65L1291.53 706.28" stroke="#132e65" stroke-width="1.5"></path><path d="M1130.51 700.65L1279.7 540.95" stroke="#132e65" stroke-width="1.5"></path><path d="M1130.51 700.65L981.06 530.78" stroke="#132e65" stroke-width="1.5"></path><path d="M1130.51 700.65L1122.85 410.03" stroke="#132e65" stroke-width="1.5"></path><path d="M1259.45 -106.28L1259.45 -106.28" stroke="#132e65" stroke-width="1.5"></path><path d="M1259.45 -106.28L1406.42 -61.18" stroke="#132e65" stroke-width="1.5"></path><path d="M1259.45 -106.28L1239.03 109" stroke="#132e65" stroke-width="1.5"></path><path d="M1259.45 -106.28L1091.84 69.23" stroke="#132e65" stroke-width="1.5"></path><path d="M1259.45 -106.28L1442.52 80.42" stroke="#132e65" stroke-width="1.5"></path><path d="M1259.45 -106.28L1158.05 198.44" stroke="#132e65" stroke-width="1.5"></path><path d="M1239.03 109L1239.03 109" stroke="#132e65" stroke-width="1.5"></path><path d="M1239.03 109L1282.22 254.08" stroke="#132e65" stroke-width="1.5"></path><path d="M1239.03 109L1442.52 80.42" stroke="#132e65" stroke-width="1.5"></path><path d="M1282.22 254.08L1282.22 254.08" stroke="#132e65" stroke-width="1.5"></path><path d="M1282.22 254.08L1259.34 365" stroke="#132e65" stroke-width="1.5"></path><path d="M1259.34 365L1259.34 365" stroke="#132e65" stroke-width="1.5"></path><path d="M1259.34 365L1400.3 374.19" stroke="#132e65" stroke-width="1.5"></path><path d="M1259.34 365L1279.7 540.95" stroke="#132e65" stroke-width="1.5"></path><path d="M1279.7 540.95L1279.7 540.95" stroke="#132e65" stroke-width="1.5"></path><path d="M1279.7 540.95L1291.53 706.28" stroke="#132e65" stroke-width="1.5"></path><path d="M1279.7 540.95L1400.3 374.19" stroke="#132e65" stroke-width="1.5"></path><path d="M1291.53 706.28L1291.53 706.28" stroke="#132e65" stroke-width="1.5"></path><path d="M1291.53 706.28L1451.03 675.79" stroke="#132e65" stroke-width="1.5"></path><path d="M1291.53 706.28L1112.73 518.14" stroke="#132e65" stroke-width="1.5"></path><path d="M1291.53 706.28L1122.85 410.03" stroke="#132e65" stroke-width="1.5"></path><path d="M1291.53 706.28L1259.34 365" stroke="#132e65" stroke-width="1.5"></path><path d="M1406.42 -61.18L1406.42 -61.18" stroke="#132e65" stroke-width="1.5"></path><path d="M1406.42 -61.18L1442.52 80.42" stroke="#132e65" stroke-width="1.5"></path><path d="M1406.42 -61.18L1590.7 -41.1" stroke="#132e65" stroke-width="1.5"></path><path d="M1406.42 -61.18L1558.13 63.16" stroke="#132e65" stroke-width="1.5"></path><path d="M1406.42 -61.18L1239.03 109" stroke="#132e65" stroke-width="1.5"></path><path d="M1442.52 80.42L1442.52 80.42" stroke="#132e65" stroke-width="1.5"></path><path d="M1442.52 80.42L1558.13 63.16" stroke="#132e65" stroke-width="1.5"></path><path d="M1455.34 246.99L1455.34 246.99" stroke="#132e65" stroke-width="1.5"></path><path d="M1455.34 246.99L1551.4 255.5" stroke="#132e65" stroke-width="1.5"></path><path d="M1400.3 374.19L1400.3 374.19" stroke="#132e65" stroke-width="1.5"></path><path d="M1400.3 374.19L1455.34 246.99" stroke="#132e65" stroke-width="1.5"></path><path d="M1400.3 374.19L1282.22 254.08" stroke="#132e65" stroke-width="1.5"></path><path d="M1400.3 374.19L1551.4 255.5" stroke="#132e65" stroke-width="1.5"></path><path d="M1400.3 374.19L1608.59 396.57" stroke="#132e65" stroke-width="1.5"></path><path d="M1451.03 675.79L1451.03 675.79" stroke="#132e65" stroke-width="1.5"></path><path d="M1451.03 675.79L1279.7 540.95" stroke="#132e65" stroke-width="1.5"></path><path d="M1451.03 675.79L1400.3 374.19" stroke="#132e65" stroke-width="1.5"></path><path d="M1451.03 675.79L1608.59 396.57" stroke="#132e65" stroke-width="1.5"></path><path d="M1451.03 675.79L1130.51 700.65" stroke="#132e65" stroke-width="1.5"></path><path d="M1451.03 675.79L1259.34 365" stroke="#132e65" stroke-width="1.5"></path><path d="M1590.7 -41.1L1590.7 -41.1" stroke="#132e65" stroke-width="1.5"></path><path d="M1590.7 -41.1L1558.13 63.16" stroke="#132e65" stroke-width="1.5"></path><path d="M1590.7 -41.1L1442.52 80.42" stroke="#132e65" stroke-width="1.5"></path><path d="M1590.7 -41.1L1551.4 255.5" stroke="#132e65" stroke-width="1.5"></path><path d="M1558.13 63.16L1558.13 63.16" stroke="#132e65" stroke-width="1.5"></path><path d="M1558.13 63.16L1551.4 255.5" stroke="#132e65" stroke-width="1.5"></path><path d="M1551.4 255.5L1551.4 255.5" stroke="#132e65" stroke-width="1.5"></path><path d="M1551.4 255.5L1608.59 396.57" stroke="#132e65" stroke-width="1.5"></path><path d="M1608.59 396.57L1608.59 396.57" stroke="#132e65" stroke-width="1.5"></path><path d="M1608.59 396.57L1455.34 246.99" stroke="#132e65" stroke-width="1.5"></path><circle r="5" cx="-107.95" cy="365.55" fill="#132e65"></circle><circle r="5" cx="-110.8" cy="533.68" fill="#132e65"></circle><circle r="5" cx="37.72" cy="539.46" fill="#132e65"></circle><circle r="5" cx="101.25" cy="652.54" fill="#132e65"></circle><circle r="5" cx="224.82" cy="360.78" fill="#132e65"></circle><circle r="5" cx="211.95" cy="516.36" fill="#132e65"></circle><circle r="5" cx="232.02" cy="676.38" fill="#132e65"></circle><circle r="5" cx="405.55" cy="374.14" fill="#132e65"></circle><circle r="5" cx="349.59" cy="561.07" fill="#132e65"></circle><circle r="5" cx="345.11" cy="654.12" fill="#132e65"></circle><circle r="5" cx="559.64" cy="509.32" fill="#132e65"></circle><circle r="5" cx="526.74" cy="666.35" fill="#132e65"></circle><circle r="5" cx="659.7" cy="555.77" fill="#132e65"></circle><circle r="5" cx="707.14" cy="683.98" fill="#132e65"></circle><circle r="5" cx="851.72" cy="57.3" fill="#132e65"></circle><circle r="5" cx="816.51" cy="242.09" fill="#132e65"></circle><circle r="5" cx="859.18" cy="342.68" fill="#132e65"></circle><circle r="5" cx="809.77" cy="536.52" fill="#132e65"></circle><circle r="5" cx="845.51" cy="688.66" fill="#132e65"></circle><circle r="5" cx="955.94" cy="48.31" fill="#132e65"></circle><circle r="5" cx="958.56" cy="236.28" fill="#132e65"></circle><circle r="5" cx="940.45" cy="351.59" fill="#132e65"></circle><circle r="5" cx="981.06" cy="530.78" fill="#132e65"></circle><circle r="5" cx="1115.51" cy="-65.76" fill="#132e65"></circle><circle r="5" cx="1091.84" cy="69.23" fill="#132e65"></circle><circle r="5" cx="1158.05" cy="198.44" fill="#132e65"></circle><circle r="5" cx="1122.85" cy="410.03" fill="#132e65"></circle><circle r="5" cx="1112.73" cy="518.14" fill="#132e65"></circle><circle r="5" cx="1130.51" cy="700.65" fill="#132e65"></circle><circle r="5" cx="1259.45" cy="-106.28" fill="#132e65"></circle><circle r="5" cx="1239.03" cy="109" fill="#132e65"></circle><circle r="5" cx="1282.22" cy="254.08" fill="#132e65"></circle><circle r="5" cx="1259.34" cy="365" fill="#132e65"></circle><circle r="5" cx="1279.7" cy="540.95" fill="#132e65"></circle><circle r="5" cx="1291.53" cy="706.28" fill="#132e65"></circle><circle r="5" cx="1406.42" cy="-61.18" fill="#132e65"></circle><circle r="5" cx="1442.52" cy="80.42" fill="#132e65"></circle><circle r="5" cx="1455.34" cy="246.99" fill="#132e65"></circle><circle r="5" cx="1400.3" cy="374.19" fill="#132e65"></circle><circle r="5" cx="1451.03" cy="675.79" fill="#132e65"></circle><circle r="5" cx="1590.7" cy="-41.1" fill="#132e65"></circle><circle r="5" cx="1558.13" cy="63.16" fill="#132e65"></circle><circle r="5" cx="1551.4" cy="255.5" fill="#132e65"></circle><circle r="5" cx="1608.59" cy="396.57" fill="#132e65"></circle><path d="M-111.34 696.18L-111.34 696.18" stroke="hsl(228.5, 77.2%, 51.5%)" stroke-width="1.5"></path><path d="M-111.34 696.18L-57.58 536.6" stroke="hsl(228.5, 77.2%, 51.5%)" stroke-width="1.5"></path><path d="M-111.34 696.18L54.26 659.2" stroke="hsl(228.5, 77.2%, 51.5%)" stroke-width="1.5"></path><path d="M1006.7 695.9L1006.7 695.9" stroke="hsl(228.5, 77.2%, 51.5%)" stroke-width="1.5"></path><path d="M1006.7 695.9L1136.96 704.38" stroke="hsl(228.5, 77.2%, 51.5%)" stroke-width="1.5"></path><path d="M1006.7 695.9L847.31 651.53" stroke="hsl(228.5, 77.2%, 51.5%)" stroke-width="1.5"></path><path d="M1103.76 225.98L1103.76 225.98" stroke="hsl(228.5, 77.2%, 51.5%)" stroke-width="1.5"></path><path d="M1103.76 225.98L1097.45 368.94" stroke="hsl(228.5, 77.2%, 51.5%)" stroke-width="1.5"></path><path d="M1103.76 225.98L1273.48 237.08" stroke="hsl(228.5, 77.2%, 51.5%)" stroke-width="1.5"></path><path d="M1276.49 37.93L1276.49 37.93" stroke="hsl(228.5, 77.2%, 51.5%)" stroke-width="1.5"></path><path d="M1276.49 37.93L1272.5 -109.17" stroke="hsl(228.5, 77.2%, 51.5%)" stroke-width="1.5"></path><path d="M1276.49 37.93L1440.79 67.19" stroke="hsl(228.5, 77.2%, 51.5%)" stroke-width="1.5"></path><path d="M1276.49 37.93L1416.91 -57.26" stroke="hsl(228.5, 77.2%, 51.5%)" stroke-width="1.5"></path><path d="M1276.49 37.93L1273.48 237.08" stroke="hsl(228.5, 77.2%, 51.5%)" stroke-width="1.5"></path><path d="M1276.49 37.93L1103.76 225.98" stroke="hsl(228.5, 77.2%, 51.5%)" stroke-width="1.5"></path><path d="M1246.95 362.88L1246.95 362.88" stroke="hsl(228.5, 77.2%, 51.5%)" stroke-width="1.5"></path><path d="M1246.95 362.88L1273.48 237.08" stroke="hsl(228.5, 77.2%, 51.5%)" stroke-width="1.5"></path><path d="M1246.95 362.88L1097.45 368.94" stroke="hsl(228.5, 77.2%, 51.5%)" stroke-width="1.5"></path><path d="M1246.95 362.88L1389.41 410.16" stroke="hsl(228.5, 77.2%, 51.5%)" stroke-width="1.5"></path><path d="M1246.95 362.88L1134.7 507.58" stroke="hsl(228.5, 77.2%, 51.5%)" stroke-width="1.5"></path><path d="M1246.95 362.88L1305.34 547.8" stroke="hsl(228.5, 77.2%, 51.5%)" stroke-width="1.5"></path><path d="M1246.95 362.88L1103.76 225.98" stroke="hsl(228.5, 77.2%, 51.5%)" stroke-width="1.5"></path><path d="M1275.83 684.74L1275.83 684.74" stroke="hsl(228.5, 77.2%, 51.5%)" stroke-width="1.5"></path><path d="M1275.83 684.74L1396.73 682.51" stroke="hsl(228.5, 77.2%, 51.5%)" stroke-width="1.5"></path><path d="M1275.83 684.74L1305.34 547.8" stroke="hsl(228.5, 77.2%, 51.5%)" stroke-width="1.5"></path><path d="M1389.41 410.16L1389.41 410.16" stroke="hsl(228.5, 77.2%, 51.5%)" stroke-width="1.5"></path><path d="M1389.41 410.16L1305.34 547.8" stroke="hsl(228.5, 77.2%, 51.5%)" stroke-width="1.5"></path><path d="M1389.41 410.16L1446.43 250.61" stroke="hsl(228.5, 77.2%, 51.5%)" stroke-width="1.5"></path><path d="M1389.41 410.16L1586.67 378.74" stroke="hsl(228.5, 77.2%, 51.5%)" stroke-width="1.5"></path><path d="M1389.41 410.16L1273.48 237.08" stroke="hsl(228.5, 77.2%, 51.5%)" stroke-width="1.5"></path><path d="M1389.41 410.16L1590.95 525.48" stroke="hsl(228.5, 77.2%, 51.5%)" stroke-width="1.5"></path><path d="M1396.73 682.51L1396.73 682.51" stroke="hsl(228.5, 77.2%, 51.5%)" stroke-width="1.5"></path><path d="M1396.73 682.51L1305.34 547.8" stroke="hsl(228.5, 77.2%, 51.5%)" stroke-width="1.5"></path><path d="M1396.73 682.51L1595.03 665.61" stroke="hsl(228.5, 77.2%, 51.5%)" stroke-width="1.5"></path><path d="M1396.73 682.51L1590.95 525.48" stroke="hsl(228.5, 77.2%, 51.5%)" stroke-width="1.5"></path><path d="M1396.73 682.51L1136.96 704.38" stroke="hsl(228.5, 77.2%, 51.5%)" stroke-width="1.5"></path><path d="M-57.58 536.6L-57.58 536.6" stroke="hsl(228.5, 77.2%, 51.5%)" stroke-width="1.5"></path><path d="M-57.58 536.6L101.02 512.72" stroke="hsl(228.5, 77.2%, 51.5%)" stroke-width="1.5"></path><path d="M-57.58 536.6L54.26 659.2" stroke="hsl(228.5, 77.2%, 51.5%)" stroke-width="1.5"></path><path d="M-57.58 536.6L197.4 546.23" stroke="hsl(228.5, 77.2%, 51.5%)" stroke-width="1.5"></path><path d="M101.02 512.72L101.02 512.72" stroke="hsl(228.5, 77.2%, 51.5%)" stroke-width="1.5"></path><path d="M101.02 512.72L197.4 546.23" stroke="hsl(228.5, 77.2%, 51.5%)" stroke-width="1.5"></path><path d="M101.02 512.72L54.26 659.2" stroke="hsl(228.5, 77.2%, 51.5%)" stroke-width="1.5"></path><path d="M54.26 659.2L54.26 659.2" stroke="hsl(228.5, 77.2%, 51.5%)" stroke-width="1.5"></path><path d="M54.26 659.2L197.4 546.23" stroke="hsl(228.5, 77.2%, 51.5%)" stroke-width="1.5"></path><path d="M54.26 659.2L251.27 662.49" stroke="hsl(228.5, 77.2%, 51.5%)" stroke-width="1.5"></path><path d="M54.26 659.2L353.3 526.66" stroke="hsl(228.5, 77.2%, 51.5%)" stroke-width="1.5"></path><path d="M197.4 546.23L197.4 546.23" stroke="hsl(228.5, 77.2%, 51.5%)" stroke-width="1.5"></path><path d="M197.4 546.23L251.27 662.49" stroke="hsl(228.5, 77.2%, 51.5%)" stroke-width="1.5"></path><path d="M197.4 546.23L353.3 526.66" stroke="hsl(228.5, 77.2%, 51.5%)" stroke-width="1.5"></path><path d="M251.27 662.49L251.27 662.49" stroke="hsl(228.5, 77.2%, 51.5%)" stroke-width="1.5"></path><path d="M251.27 662.49L410.01 640.82" stroke="hsl(228.5, 77.2%, 51.5%)" stroke-width="1.5"></path><path d="M251.27 662.49L353.3 526.66" stroke="hsl(228.5, 77.2%, 51.5%)" stroke-width="1.5"></path><path d="M251.27 662.49L101.02 512.72" stroke="hsl(228.5, 77.2%, 51.5%)" stroke-width="1.5"></path><path d="M353.3 526.66L353.3 526.66" stroke="hsl(228.5, 77.2%, 51.5%)" stroke-width="1.5"></path><path d="M353.3 526.66L410.01 640.82" stroke="hsl(228.5, 77.2%, 51.5%)" stroke-width="1.5"></path><path d="M410.01 640.82L410.01 640.82" stroke="hsl(228.5, 77.2%, 51.5%)" stroke-width="1.5"></path><path d="M410.01 640.82L555.14 691.85" stroke="hsl(228.5, 77.2%, 51.5%)" stroke-width="1.5"></path><path d="M522.25 517.77L522.25 517.77" stroke="hsl(228.5, 77.2%, 51.5%)" stroke-width="1.5"></path><path d="M522.25 517.77L410.01 640.82" stroke="hsl(228.5, 77.2%, 51.5%)" stroke-width="1.5"></path><path d="M522.25 517.77L353.3 526.66" stroke="hsl(228.5, 77.2%, 51.5%)" stroke-width="1.5"></path><path d="M522.25 517.77L698.49 533.09" stroke="hsl(228.5, 77.2%, 51.5%)" stroke-width="1.5"></path><path d="M522.25 517.77L555.14 691.85" stroke="hsl(228.5, 77.2%, 51.5%)" stroke-width="1.5"></path><path d="M555.14 691.85L555.14 691.85" stroke="hsl(228.5, 77.2%, 51.5%)" stroke-width="1.5"></path><path d="M555.14 691.85L697.29 683.55" stroke="hsl(228.5, 77.2%, 51.5%)" stroke-width="1.5"></path><path d="M555.14 691.85L698.49 533.09" stroke="hsl(228.5, 77.2%, 51.5%)" stroke-width="1.5"></path><path d="M555.14 691.85L353.3 526.66" stroke="hsl(228.5, 77.2%, 51.5%)" stroke-width="1.5"></path><path d="M667.25 396.01L667.25 396.01" stroke="hsl(228.5, 77.2%, 51.5%)" stroke-width="1.5"></path><path d="M667.25 396.01L698.49 533.09" stroke="hsl(228.5, 77.2%, 51.5%)" stroke-width="1.5"></path><path d="M698.49 533.09L698.49 533.09" stroke="hsl(228.5, 77.2%, 51.5%)" stroke-width="1.5"></path><path d="M698.49 533.09L837.94 522.09" stroke="hsl(228.5, 77.2%, 51.5%)" stroke-width="1.5"></path><path d="M697.29 683.55L697.29 683.55" stroke="hsl(228.5, 77.2%, 51.5%)" stroke-width="1.5"></path><path d="M697.29 683.55L698.49 533.09" stroke="hsl(228.5, 77.2%, 51.5%)" stroke-width="1.5"></path><path d="M832.25 377.92L832.25 377.92" stroke="hsl(228.5, 77.2%, 51.5%)" stroke-width="1.5"></path><path d="M832.25 377.92L938.5 349.31" stroke="hsl(228.5, 77.2%, 51.5%)" stroke-width="1.5"></path><path d="M832.25 377.92L837.94 522.09" stroke="hsl(228.5, 77.2%, 51.5%)" stroke-width="1.5"></path><path d="M832.25 377.92L667.25 396.01" stroke="hsl(228.5, 77.2%, 51.5%)" stroke-width="1.5"></path><path d="M832.25 377.92L698.49 533.09" stroke="hsl(228.5, 77.2%, 51.5%)" stroke-width="1.5"></path><path d="M837.94 522.09L837.94 522.09" stroke="hsl(228.5, 77.2%, 51.5%)" stroke-width="1.5"></path><path d="M837.94 522.09L847.31 651.53" stroke="hsl(228.5, 77.2%, 51.5%)" stroke-width="1.5"></path><path d="M837.94 522.09L1012.15 492.25" stroke="hsl(228.5, 77.2%, 51.5%)" stroke-width="1.5"></path><path d="M837.94 522.09L938.5 349.31" stroke="hsl(228.5, 77.2%, 51.5%)" stroke-width="1.5"></path><path d="M837.94 522.09L667.25 396.01" stroke="hsl(228.5, 77.2%, 51.5%)" stroke-width="1.5"></path><path d="M847.31 651.53L847.31 651.53" stroke="hsl(228.5, 77.2%, 51.5%)" stroke-width="1.5"></path><path d="M847.31 651.53L697.29 683.55" stroke="hsl(228.5, 77.2%, 51.5%)" stroke-width="1.5"></path><path d="M847.31 651.53L698.49 533.09" stroke="hsl(228.5, 77.2%, 51.5%)" stroke-width="1.5"></path><path d="M847.31 651.53L1012.15 492.25" stroke="hsl(228.5, 77.2%, 51.5%)" stroke-width="1.5"></path><path d="M847.31 651.53L832.25 377.92" stroke="hsl(228.5, 77.2%, 51.5%)" stroke-width="1.5"></path><path d="M938.5 349.31L938.5 349.31" stroke="hsl(228.5, 77.2%, 51.5%)" stroke-width="1.5"></path><path d="M938.5 349.31L1097.45 368.94" stroke="hsl(228.5, 77.2%, 51.5%)" stroke-width="1.5"></path><path d="M938.5 349.31L1012.15 492.25" stroke="hsl(228.5, 77.2%, 51.5%)" stroke-width="1.5"></path><path d="M1012.15 492.25L1012.15 492.25" stroke="hsl(228.5, 77.2%, 51.5%)" stroke-width="1.5"></path><path d="M1012.15 492.25L1134.7 507.58" stroke="hsl(228.5, 77.2%, 51.5%)" stroke-width="1.5"></path><path d="M1012.15 492.25L1097.45 368.94" stroke="hsl(228.5, 77.2%, 51.5%)" stroke-width="1.5"></path><path d="M1097.45 368.94L1097.45 368.94" stroke="hsl(228.5, 77.2%, 51.5%)" stroke-width="1.5"></path><path d="M1097.45 368.94L1134.7 507.58" stroke="hsl(228.5, 77.2%, 51.5%)" stroke-width="1.5"></path><path d="M1134.7 507.58L1134.7 507.58" stroke="hsl(228.5, 77.2%, 51.5%)" stroke-width="1.5"></path><path d="M1134.7 507.58L1305.34 547.8" stroke="hsl(228.5, 77.2%, 51.5%)" stroke-width="1.5"></path><path d="M1136.96 704.38L1136.96 704.38" stroke="hsl(228.5, 77.2%, 51.5%)" stroke-width="1.5"></path><path d="M1136.96 704.38L1275.83 684.74" stroke="hsl(228.5, 77.2%, 51.5%)" stroke-width="1.5"></path><path d="M1136.96 704.38L1134.7 507.58" stroke="hsl(228.5, 77.2%, 51.5%)" stroke-width="1.5"></path><path d="M1136.96 704.38L1305.34 547.8" stroke="hsl(228.5, 77.2%, 51.5%)" stroke-width="1.5"></path><path d="M1136.96 704.38L1012.15 492.25" stroke="hsl(228.5, 77.2%, 51.5%)" stroke-width="1.5"></path><path d="M1272.5 -109.17L1272.5 -109.17" stroke="hsl(228.5, 77.2%, 51.5%)" stroke-width="1.5"></path><path d="M1272.5 -109.17L1416.91 -57.26" stroke="hsl(228.5, 77.2%, 51.5%)" stroke-width="1.5"></path><path d="M1273.48 237.08L1273.48 237.08" stroke="hsl(228.5, 77.2%, 51.5%)" stroke-width="1.5"></path><path d="M1273.48 237.08L1446.43 250.61" stroke="hsl(228.5, 77.2%, 51.5%)" stroke-width="1.5"></path><path d="M1273.48 237.08L1097.45 368.94" stroke="hsl(228.5, 77.2%, 51.5%)" stroke-width="1.5"></path><path d="M1305.34 547.8L1305.34 547.8" stroke="hsl(228.5, 77.2%, 51.5%)" stroke-width="1.5"></path><path d="M1416.91 -57.26L1416.91 -57.26" stroke="hsl(228.5, 77.2%, 51.5%)" stroke-width="1.5"></path><path d="M1416.91 -57.26L1440.79 67.19" stroke="hsl(228.5, 77.2%, 51.5%)" stroke-width="1.5"></path><path d="M1440.79 67.19L1440.79 67.19" stroke="hsl(228.5, 77.2%, 51.5%)" stroke-width="1.5"></path><path d="M1440.79 67.19L1545.26 58.51" stroke="hsl(228.5, 77.2%, 51.5%)" stroke-width="1.5"></path><path d="M1440.79 67.19L1446.43 250.61" stroke="hsl(228.5, 77.2%, 51.5%)" stroke-width="1.5"></path><path d="M1440.79 67.19L1588.23 -99.33" stroke="hsl(228.5, 77.2%, 51.5%)" stroke-width="1.5"></path><path d="M1446.43 250.61L1446.43 250.61" stroke="hsl(228.5, 77.2%, 51.5%)" stroke-width="1.5"></path><path d="M1446.43 250.61L1586.67 378.74" stroke="hsl(228.5, 77.2%, 51.5%)" stroke-width="1.5"></path><path d="M1588.23 -99.33L1588.23 -99.33" stroke="hsl(228.5, 77.2%, 51.5%)" stroke-width="1.5"></path><path d="M1588.23 -99.33L1545.26 58.51" stroke="hsl(228.5, 77.2%, 51.5%)" stroke-width="1.5"></path><path d="M1588.23 -99.33L1416.91 -57.26" stroke="hsl(228.5, 77.2%, 51.5%)" stroke-width="1.5"></path><path d="M1545.26 58.51L1545.26 58.51" stroke="hsl(228.5, 77.2%, 51.5%)" stroke-width="1.5"></path><path d="M1586.67 378.74L1586.67 378.74" stroke="hsl(228.5, 77.2%, 51.5%)" stroke-width="1.5"></path><path d="M1586.67 378.74L1590.95 525.48" stroke="hsl(228.5, 77.2%, 51.5%)" stroke-width="1.5"></path><path d="M1590.95 525.48L1590.95 525.48" stroke="hsl(228.5, 77.2%, 51.5%)" stroke-width="1.5"></path><path d="M1590.95 525.48L1595.03 665.61" stroke="hsl(228.5, 77.2%, 51.5%)" stroke-width="1.5"></path><path d="M1595.03 665.61L1595.03 665.61" stroke="hsl(228.5, 77.2%, 51.5%)" stroke-width="1.5"></path><path d="M1595.03 665.61L1586.67 378.74" stroke="hsl(228.5, 77.2%, 51.5%)" stroke-width="1.5"></path><path d="M1595.03 665.61L1305.34 547.8" stroke="hsl(228.5, 77.2%, 51.5%)" stroke-width="1.5"></path><path d="M1595.03 665.61L1275.83 684.74" stroke="hsl(228.5, 77.2%, 51.5%)" stroke-width="1.5"></path><path d="M1595.03 665.61L1389.41 410.16" stroke="hsl(228.5, 77.2%, 51.5%)" stroke-width="1.5"></path><circle r="25" cx="-111.34" cy="696.18" fill="url(#SvgjsRadialGradient1001)"></circle><circle r="25" cx="1006.7" cy="695.9" fill="url(#SvgjsRadialGradient1001)"></circle><circle r="25" cx="1103.76" cy="225.98" fill="url(#SvgjsRadialGradient1001)"></circle><circle r="25" cx="1276.49" cy="37.93" fill="url(#SvgjsRadialGradient1001)"></circle><circle r="25" cx="1246.95" cy="362.88" fill="url(#SvgjsRadialGradient1001)"></circle><circle r="25" cx="1275.83" cy="684.74" fill="url(#SvgjsRadialGradient1001)"></circle><circle r="25" cx="1389.41" cy="410.16" fill="url(#SvgjsRadialGradient1001)"></circle><circle r="25" cx="1396.73" cy="682.51" fill="url(#SvgjsRadialGradient1001)"></circle><circle r="5" cx="-57.58" cy="536.6" fill="#8b9ad9"></circle><circle r="5" cx="101.02" cy="512.72" fill="#8b9ad9"></circle><circle r="5" cx="54.26" cy="659.2" fill="#8b9ad9"></circle><circle r="5" cx="197.4" cy="546.23" fill="#8b9ad9"></circle><circle r="5" cx="251.27" cy="662.49" fill="#8b9ad9"></circle><circle r="5" cx="353.3" cy="526.66" fill="#8b9ad9"></circle><circle r="5" cx="410.01" cy="640.82" fill="#8b9ad9"></circle><circle r="5" cx="522.25" cy="517.77" fill="#8b9ad9"></circle><circle r="5" cx="555.14" cy="691.85" fill="#8b9ad9"></circle><circle r="5" cx="667.25" cy="396.01" fill="#8b9ad9"></circle><circle r="5" cx="698.49" cy="533.09" fill="#8b9ad9"></circle><circle r="5" cx="697.29" cy="683.55" fill="#8b9ad9"></circle><circle r="5" cx="832.25" cy="377.92" fill="#8b9ad9"></circle><circle r="5" cx="837.94" cy="522.09" fill="#8b9ad9"></circle><circle r="5" cx="847.31" cy="651.53" fill="#8b9ad9"></circle><circle r="5" cx="938.5" cy="349.31" fill="#8b9ad9"></circle><circle r="5" cx="1012.15" cy="492.25" fill="#8b9ad9"></circle><circle r="5" cx="1097.45" cy="368.94" fill="#8b9ad9"></circle><circle r="5" cx="1134.7" cy="507.58" fill="#8b9ad9"></circle><circle r="5" cx="1136.96" cy="704.38" fill="#8b9ad9"></circle><circle r="5" cx="1272.5" cy="-109.17" fill="#8b9ad9"></circle><circle r="5" cx="1273.48" cy="237.08" fill="#8b9ad9"></circle><circle r="5" cx="1305.34" cy="547.8" fill="#8b9ad9"></circle><circle r="5" cx="1416.91" cy="-57.26" fill="#8b9ad9"></circle><circle r="5" cx="1440.79" cy="67.19" fill="#8b9ad9"></circle><circle r="5" cx="1446.43" cy="250.61" fill="#8b9ad9"></circle><circle r="5" cx="1588.23" cy="-99.33" fill="#8b9ad9"></circle><circle r="5" cx="1545.26" cy="58.51" fill="#8b9ad9"></circle><circle r="5" cx="1586.67" cy="378.74" fill="#8b9ad9"></circle><circle r="5" cx="1590.95" cy="525.48" fill="#8b9ad9"></circle><circle r="5" cx="1595.03" cy="665.61" fill="#8b9ad9"></circle></g><defs><mask id="SvgjsMask1000"><rect width="1440" height="560" fill="#ffffff"></rect></mask><radialGradient id="SvgjsRadialGradient1001"><stop stop-color="#ffffff" offset="0.1"></stop><stop stop-color="#1735b3" offset="0.2"></stop><stop stop-color="rgba(23, 53, 179, 0)" offset="1"></stop></radialGradient></defs></svg>