<svg xmlns="http://www.w3.org/2000/svg" version="1.1" xmlns:xlink="http://www.w3.org/1999/xlink" xmlns:svgjs="http://svgjs.com/svgjs" width="1200" height="560" preserveAspectRatio="none" viewBox="0 0 1200 560"><g mask="url(&quot;#SvgjsMask1232&quot;)" fill="none"><rect width="1200" height="560" x="0" y="0" fill="url(#SvgjsRadialGradient1233)"></rect><path d="M -172.7766181817908,272 C -92.78,291.4 67.22,382.4 227.2233818182092,369 C 387.22,355.6 467.22,186.4 627.2233818182092,205 C 787.22,223.6 867.22,482.2 1027.2233818182092,462 C 1187.22,441.8 1392.67,114 1427.2233818182092,104 C 1461.78,94 1245.44,350.4 1200,412" stroke="rgba(51, 121, 194, 0.58)" stroke-width="2"></path><path d="M -340.1589644376509,138 C -260.16,171 -100.16,287.2 59.8410355623491,303 C 219.84,318.8 299.84,211.8 459.8410355623491,217 C 619.84,222.2 699.84,339 859.8410355623491,329 C 1019.84,319 1191.81,135.2 1259.8410355623491,167 C 1327.87,198.8 1211.97,423.8 1200,488" stroke="rgba(51, 121, 194, 0.58)" stroke-width="2"></path><path d="M -741.1690640934983,491 C -661.17,436.6 -501.17,217.2 -341.16906409349826,219 C -181.17,220.8 -101.17,529.2 58.830935906501736,500 C 218.83,470.8 298.83,97.2 458.83093590650174,73 C 618.83,48.8 710.6,380 858.8309359065017,379 C 1007.06,378 1131.77,130.2 1200,68" stroke="rgba(51, 121, 194, 0.58)" stroke-width="2"></path><path d="M -171.27370899819095,302 C -91.27,266.2 68.73,110.6 228.72629100180905,123 C 388.73,135.4 468.73,339.8 628.726291001809,364 C 788.73,388.2 868.73,237.2 1028.726291001809,244 C 1188.73,250.8 1394.47,423.8 1428.726291001809,398 C 1462.98,372.2 1245.75,171.6 1200,115" stroke="rgba(51, 121, 194, 0.58)" stroke-width="2"></path></g><defs><mask id="SvgjsMask1232"><rect width="1200" height="560" fill="#ffffff"></rect></mask><radialGradient cx="50%" cy="100%" r="820.73" gradientUnits="userSpaceOnUse" id="SvgjsRadialGradient1233"><stop stop-color="#0e2a47" offset="0"></stop><stop stop-color="rgba(13, 13, 13, 1)" offset="0.81"></stop><stop stop-color="rgba(13, 13, 13, 1)" offset="0.87"></stop><stop stop-color="rgba(13, 13, 13, 1)" offset="0.87"></stop><stop stop-color="rgba(13, 13, 13, 1)" offset="0.95"></stop><stop stop-color="rgba(13, 13, 13, 1)" offset="1"></stop></radialGradient></defs></svg>